<svg width="40" height="40" viewBox="0 0 40 40" fill="none" xmlns="http://www.w3.org/2000/svg">
<path d="M20 28.3332C17.6944 28.3332 15.7294 27.5204 14.105 25.8948C12.4806 24.2693 11.6678 22.3043 11.6667 19.9998C11.6656 17.6954 12.4783 15.7304 14.105 14.1048C15.7317 12.4793 17.6967 11.6665 20 11.6665C22.3033 11.6665 24.2689 12.4793 25.8967 14.1048C27.5244 15.7304 28.3367 17.6954 28.3333 19.9998C28.33 22.3043 27.5172 24.2698 25.895 25.8965C24.2728 27.5232 22.3078 28.3354 20 28.3332ZM8.33333 21.6665H1.66667V18.3332H8.33333V21.6665ZM38.3333 21.6665H31.6667V18.3332H38.3333V21.6665ZM18.3333 8.33317V1.6665H21.6667V8.33317H18.3333ZM18.3333 38.3332V31.6665H21.6667V38.3332H18.3333ZM10.6667 12.9165L6.45833 8.87484L8.83333 6.4165L12.8333 10.5832L10.6667 12.9165ZM31.1667 33.5832L27.125 29.3748L29.3333 27.0832L33.5417 31.1248L31.1667 33.5832ZM27.0833 10.6665L31.125 6.45817L33.5833 8.83317L29.4167 12.8332L27.0833 10.6665ZM6.41667 31.1665L10.625 27.1248L12.9167 29.3332L8.875 33.5415L6.41667 31.1665Z" fill="#EEB84C"/>
</svg>
