<svg width="45" height="45" viewBox="0 0 45 45" fill="none" xmlns="http://www.w3.org/2000/svg">
<path d="M43.6761 1.23584C35.3142 1.54311 28.5329 3.35225 23.3486 6.14119L20.7585 10.4724L20.3219 8.00333C19.396 8.6539 18.5365 9.3412 17.7455 10.0606L16.4547 14.0209L16.0124 11.81C12.4396 15.8097 10.7029 20.5872 10.8323 25.5127C14.9871 17.2803 22.4694 10.3316 29.4625 6.07527L30.3165 7.47889C23.6973 11.5076 16.5716 18.1314 12.5462 25.7821H13.6146C15.353 24.7257 17.0564 23.4215 18.7479 21.9641L16.0866 22.1043L20.8518 20.0746C24.9717 16.2393 29.0665 11.7273 33.4477 7.92106L31.297 7.46491L36.2628 5.61657C38.623 3.81613 41.0792 2.29044 43.6759 1.23584H43.6761ZM5.23208 27.4243V30.0969H17.0507V27.4243H5.23208ZM7.02294 31.7393L4.15278 34.2607L2.19458 41.7285L3.47163 43.1239H19.0476L20.3273 41.7286L18.3691 34.2608L15.6527 31.7394H7.02294V31.7393Z" fill="#EEB84C"/>
</svg>
