<svg width="45" height="45" viewBox="0 0 45 45" fill="none" xmlns="http://www.w3.org/2000/svg">
<path d="M20.289 4.19117C17.8092 4.19847 15.1413 4.44825 12.291 4.96285C29.8535 3.68017 38.8433 12.7004 43.5883 25.7298C43.5883 13.1337 35.4435 4.14661 20.289 4.19117ZM20.0556 7.1464C15.0719 9.11287 11.4944 14.2826 11.4944 20.4042C11.4944 24.7113 13.2657 28.5464 16.0511 31.1268C18.041 31.8816 20.1436 32.0852 22.327 31.9673C20.0232 23.5214 21.578 15.675 25.1835 8.14897C23.5545 7.57681 21.8471 7.23649 20.0558 7.1464H20.0556ZM16.3779 7.30303C12.5706 7.80277 8.41061 9.35061 3.85348 12.0957C6.0496 20.6301 8.82325 25.7221 12.008 28.6165C10.6406 26.2206 9.85201 23.4072 9.85201 20.4042C9.85201 14.9611 12.4379 10.135 16.3779 7.30303ZM28.1689 9.50029C28.3041 10.0493 28.4259 10.6015 28.5342 11.1565C28.375 11.125 28.2131 11.1094 28.0508 11.1097C26.6897 11.1097 25.5872 12.2128 25.5872 13.5733C25.5872 14.9341 26.6897 16.0372 28.0508 16.0372C28.4314 16.0372 28.7919 15.9522 29.1138 15.7981C29.4003 21.2671 28.2669 26.681 25.5076 31.6047C28.3726 31.1318 31.3453 30.3171 34.3652 29.6354C36.3395 27.167 37.5376 23.9459 37.5376 20.4041C37.5376 19.6992 37.489 19.0066 37.3975 18.3304C34.6491 14.4266 31.5949 11.4141 28.1689 9.50029ZM1.63696 13.7604C3.23262 40.4258 21.9164 42.1735 43.3356 30.2093C26.9453 30.5968 10.1848 46.7828 1.63696 13.76V13.7604ZM39.1663 21.0333C39.0564 24.021 38.1694 26.8018 36.7108 29.1438C38.8194 28.74 40.9418 28.4589 43.0582 28.4572C41.8344 25.769 40.5414 23.285 39.1663 21.0333ZM42.8164 32.4424C31.649 39.3924 19.3193 42.2536 5.81177 35.8812C17.2592 46.0638 35.88 43.121 42.8164 32.4425V32.4424Z" fill="#EEB84C"/>
</svg>
