<svg width="45" height="27" viewBox="0 0 45 27" fill="none" xmlns="http://www.w3.org/2000/svg">
<path d="M29.2441 13.4776C29.2441 17.0526 26.2192 19.9506 22.4878 19.9506C18.7564 19.9506 15.7315 17.0526 15.7315 13.4776C15.7315 9.9027 18.7564 7.0047 22.4878 7.0047C26.2192 7.00466 29.2441 9.90274 29.2441 13.4776ZM22.5 0C18.6366 0.0171375 14.632 0.957675 10.8411 2.75839C8.02643 4.15046 5.28338 6.11449 2.90228 8.53867C1.7328 9.77614 0.241163 11.568 0 13.4798C0.0285 15.1358 1.80487 17.1798 2.90228 18.4209C5.13514 20.7498 7.80675 22.659 10.8411 24.2026C14.3763 25.9182 18.2892 26.906 22.5 26.961C26.3671 26.9436 30.3708 25.9922 34.1575 24.2026C36.9722 22.8105 39.7166 20.845 42.0977 18.4209C43.2672 17.1834 44.7588 15.3915 45 13.4798C44.9715 11.8237 43.1951 9.77959 42.0977 8.5386C39.8649 6.20963 37.1918 4.30189 34.1575 2.75831C30.6242 1.04396 26.7016 0.0629625 22.5 0ZM22.4972 3.3468C28.3516 3.3468 33.0975 7.88408 33.0975 13.4812C33.0975 19.0783 28.3516 23.6156 22.4972 23.6156C16.6427 23.6156 11.8968 19.0783 11.8968 13.4812C11.8968 7.88408 16.6427 3.3468 22.4972 3.3468Z" fill="#EEB84C"/>
</svg>
