<svg width="40" height="40" viewBox="0 0 40 40" fill="none" xmlns="http://www.w3.org/2000/svg">
<path d="M14.75 1.59229C14.3359 3.68994 15.1093 5.94697 17.414 8.35166C18.289 7.78213 19.8828 7.49697 21.3203 7.71416C17.7265 5.97119 16.125 4.03213 14.75 1.59229ZM2.28042 2.07979C3.40308 5.70947 6.33511 10.0626 10.125 13.1485C7.30542 12.9688 3.90073 11.961 1.46558 11.172C3.41558 13.922 6.47886 15.3048 9.53901 16.3517C7.58823 17.7345 5.23355 19.1407 1.45776 19.3751C5.72651 20.8751 9.85933 20.0704 11.7187 19.4298C10.3203 22.1563 3.84995 24.6017 2.16323 25.4454C6.32417 25.7735 11.6718 24.586 15.2109 22.8751C15.9921 24.797 15.0859 27.0313 14.4218 28.9532C14.2734 29.3048 14.125 29.6485 13.9765 29.9923C14.375 29.7188 14.7656 29.4454 15.1406 29.1642C16.9843 27.8985 18.875 26.672 19.789 24.5704C21.8281 27.0079 24.6875 29.422 28.1484 31.2423C29.5078 32.9688 30.3593 35.0704 30.8203 37.0079C31.4687 35.5157 31.8984 33.8673 31.5781 32.297C33.4921 32.0157 34.3593 29.9767 34.3515 28.047C33.3671 28.5313 33.1718 28.5392 31.914 28.6876C31.914 27.8985 31.9609 27.711 31.6796 26.4454C30.875 27.1017 30.039 27.3204 29.2734 27.3673C29.4375 26.7735 29.5078 25.8438 29.5625 25.2345C28.5468 25.7892 28.0625 25.9923 27.2109 26.0782C27.1796 25.2267 27.2031 24.5157 26.8906 23.7032C24.5781 25.1876 23.0937 23.8204 21.5781 22.0392C23.125 20.711 29.1093 20.336 29.0078 22.5938C30.1015 22.0235 30.4765 21.7188 30.8515 21.3517C31.5625 22.0157 31.8984 22.9845 32.0312 23.8048C32.7578 23.0704 32.8359 22.9845 33.3671 21.9454C33.8125 22.7345 34.0546 23.2735 34.2031 24.336C34.8671 23.8517 35.4062 23.3126 35.75 22.6642C36.3359 23.8751 36.3984 23.9142 36.7187 25.2423C38.1093 24.2188 38.4218 22.8048 38.5 21.5235C38.6562 18.9454 38.4765 13.0704 36.0781 10.3595C36.2109 13.1954 35.0546 15.8282 33.4375 16.6642C32.4531 17.047 25.8984 10.836 22.6875 9.3751C20.8515 8.57822 18.9296 9.92979 17.3906 10.1017C11.4843 8.29697 6.52886 5.54229 2.28042 2.07979ZM23.1328 11.9376C24.1718 13.5704 25.6484 14.8204 27.8281 16.2345C26.3125 16.461 22.6875 15.711 21.7578 14.3595C21.3281 13.7423 22.3125 12.6954 23.1328 11.9376ZM14.1093 24.9298C12.9843 25.4142 11.8281 25.7813 10.6875 26.047C10.5 26.3282 10.3281 26.6017 10.164 26.8673C11.3203 27.2813 12.625 27.4142 13.6093 27.086C13.8671 26.3204 14.039 25.5782 14.1093 24.9298ZM8.79683 26.422L7.99995 26.5392C5.5148 29.3985 3.16401 34.6017 4.2312 38.4063H7.05386C6.18511 35.461 5.76245 31.6017 8.79683 26.422ZM9.46089 28.1017C8.99995 28.9923 8.64839 29.8282 8.38276 30.6095C9.39058 31.1329 10.6562 31.3048 11.8828 31.2501C12.2421 30.4298 12.6484 29.547 13.0234 28.6485C11.8203 28.7892 10.5703 28.5392 9.46089 28.1017ZM18.164 28.6173C17.2265 29.4376 16.1953 30.2032 15.125 30.9298C15.6718 33.586 17.7343 35.8829 20.8984 38.4063H27.4062C22.9375 35.922 20.0156 32.6798 18.164 28.6173ZM8.00776 31.9923C7.81245 32.9142 7.74995 33.7657 7.77339 34.5626C10.6875 35.672 12.6562 35.6173 15.3906 34.8829C14.8281 34.0782 14.375 33.2423 14.0703 32.3595C11.5156 33.0938 9.74214 32.8048 8.00776 31.9923ZM16.3359 36.086C13.3593 36.9376 10.9609 37.1173 7.93745 36.1095C8.07808 36.922 8.28901 37.6798 8.52339 38.4063H18.6875C17.8046 37.6407 17.0156 36.8751 16.3359 36.086Z" fill="#EEB84C"/>
</svg>
